<svg xmlns="http://www.w3.org/2000/svg" data-name="Layer 1" viewBox="0 0 95 118.75" x="0px" y="0px"><path d="M28.037,73.167H61.493A2.939,2.939,0,0,1,64.427,76.1v2.934H25.1V76.1a2.938,2.938,0,0,1,2.934-2.931ZM11.07,51.784H30.05A1.387,1.387,0,0,0,31.43,50.4v-12A1.388,1.388,0,0,0,30.05,37H11.07a1.4,1.4,0,0,0-1.395,1.389v12a1.4,1.4,0,0,0,1.395,1.389Zm10.671-7.39-1.633.941-.047.029-1.681.969V42.456l1.681.967h0l1.68.972Zm-.7-2.68L24.2,43.533a.965.965,0,0,1,.381.369.987.987,0,0,1-.365,1.348l-3.108,1.8c-.016.011-.047.022-.063.032l-3.092,1.791a.981.981,0,0,1-.555.17.993.993,0,0,1-1-.991V40.74h0a.947.947,0,0,1,.143-.494.981.981,0,0,1,1.347-.36l3.156,1.826v0ZM11.435,15.968H29.527L20.6,25.675l-9.165-9.707ZM31.35,16.9,21.345,27.8l-.048.049A.983.983,0,0,1,19.9,27.8L9.722,17.03a1.154,1.154,0,0,0-.047.327v12a1.4,1.4,0,0,0,1.395,1.389H30.05a1.388,1.388,0,0,0,1.38-1.389v-12a1.426,1.426,0,0,0-.08-.455ZM83.6,31.049A1.87,1.87,0,0,1,85.325,32.9V42.984A1.87,1.87,0,0,1,83.6,44.836V31.049ZM62.9,28.3l16.729-7.835a1.349,1.349,0,0,1,1.332.084,1.366,1.366,0,0,1,.65,1.175V54.158a1.363,1.363,0,0,1-.65,1.173,1.342,1.342,0,0,1-1.332.086L62.9,47.582V28.3ZM43.147,31.639a1.045,1.045,0,0,0-.983,1.042V43.2a1.045,1.045,0,0,0,.983,1.042,3.523,3.523,0,0,1-.063-.705v-11.2a3.519,3.519,0,0,1,.063-.7Zm5.027-2.4H60.922V46.645H48.174a3.123,3.123,0,0,1-3.108-3.1v-11.2a3.123,3.123,0,0,1,3.108-3.1Zm-14.762-8.7H70.4a3.67,3.67,0,0,1,2.426.924L60.478,27.256h-12.3a5.1,5.1,0,0,0-4.313,2.4h-.65a3.035,3.035,0,0,0-3.029,3.026V43.2a3.035,3.035,0,0,0,3.029,3.026h.65a5.1,5.1,0,0,0,4.313,2.4h12.3L74.067,55v1.741h-58.6V53.766H30.05A3.369,3.369,0,0,0,33.412,50.4v-12a3.37,3.37,0,0,0-3.362-3.371H15.462V32.732H30.05a3.373,3.373,0,0,0,3.362-3.372V20.543Zm40.655,38.18v2.651A3.673,3.673,0,0,1,70.4,65.035h-17v6.148H36.123V65.035h-17a3.673,3.673,0,0,1-3.663-3.661V58.723Z" style="" fill-rule="evenodd"/><text x="0" y="110" fill="#000000" font-size="5px" font-weight="bold" font-family="'Helvetica Neue', Helvetica, Arial-Unicode, Arial, Sans-serif">Created by Vior</text><text x="0" y="115" fill="#000000" font-size="5px" font-weight="bold" font-family="'Helvetica Neue', Helvetica, Arial-Unicode, Arial, Sans-serif">from the Noun Project</text></svg>